<mxfile host="app.diagrams.net" modified="2023-05-26T19:48:20.494Z" agent="Mozilla/5.0 (Windows NT 10.0; Win64; x64) AppleWebKit/537.36 (KHTML, like Gecko) Chrome/113.0.0.0 Safari/537.36" etag="uKfhf4SkkAvbLDDkoo7v" version="21.3.4" type="device">
  <diagram name="Page-1" id="veesdXjUGpf9WzVIaONE">
    <mxGraphModel dx="792" dy="-8917" grid="1" gridSize="10" guides="1" tooltips="1" connect="1" arrows="1" fold="1" page="1" pageScale="1" pageWidth="850" pageHeight="300" math="0" shadow="0">
      <root>
        <mxCell id="0" />
        <mxCell id="1" parent="0" />
        <mxCell id="ZYo6UWv2TKNKh4nMed5W-1" value="&lt;font color=&quot;#000000&quot; style=&quot;font-size: 30px&quot;&gt;&lt;b&gt;Iteration #2&lt;br&gt;&lt;/b&gt;&lt;/font&gt;" style="rounded=0;whiteSpace=wrap;html=1;sketch=1;strokeColor=#6c8ebf;dashed=1;glass=0;shadow=0;fillColor=#dae8fc;align=right;verticalAlign=top;" vertex="1" parent="1">
          <mxGeometry x="1" y="11383" width="1028" height="326" as="geometry" />
        </mxCell>
        <mxCell id="ZYo6UWv2TKNKh4nMed5W-2" value="&lt;font color=&quot;#000000&quot; style=&quot;font-size: 30px&quot;&gt;&lt;b&gt;Iteration #1&lt;br&gt;&lt;/b&gt;&lt;/font&gt;" style="rounded=0;whiteSpace=wrap;html=1;sketch=1;strokeColor=#6c8ebf;dashed=1;glass=0;shadow=0;fillColor=#dae8fc;align=right;verticalAlign=top;" vertex="1" parent="1">
          <mxGeometry x="1" y="11058" width="1028" height="311" as="geometry" />
        </mxCell>
        <mxCell id="ZYo6UWv2TKNKh4nMed5W-3" value="&lt;font color=&quot;#000000&quot; style=&quot;font-size: 30px&quot;&gt;&lt;b&gt;Iteration #2&lt;br&gt;&lt;/b&gt;&lt;/font&gt;" style="rounded=0;whiteSpace=wrap;html=1;sketch=1;strokeColor=#6c8ebf;dashed=1;glass=0;shadow=0;fillColor=#dae8fc;align=right;verticalAlign=top;" vertex="1" parent="1">
          <mxGeometry x="6" y="10606" width="1028" height="339" as="geometry" />
        </mxCell>
        <mxCell id="ZYo6UWv2TKNKh4nMed5W-4" value="&lt;font color=&quot;#000000&quot; style=&quot;font-size: 30px&quot;&gt;&lt;b&gt;Iteration #1&lt;/b&gt;&lt;/font&gt;" style="rounded=0;whiteSpace=wrap;html=1;sketch=1;strokeColor=#6c8ebf;dashed=1;glass=0;shadow=0;fillColor=#dae8fc;align=right;verticalAlign=top;" vertex="1" parent="1">
          <mxGeometry x="6" y="10235" width="1028" height="339" as="geometry" />
        </mxCell>
        <mxCell id="ZYo6UWv2TKNKh4nMed5W-5" value="&lt;b&gt;&lt;font style=&quot;font-size: 35px&quot; color=&quot;#050505&quot;&gt;Find Kth from end:&lt;/font&gt;&lt;/b&gt;" style="text;html=1;align=center;verticalAlign=middle;resizable=0;points=[];autosize=1;" vertex="1" parent="1">
          <mxGeometry x="16.5" y="9676" width="317" height="25" as="geometry" />
        </mxCell>
        <mxCell id="ZYo6UWv2TKNKh4nMed5W-6" value="7" style="rounded=0;whiteSpace=wrap;html=1;sketch=0;fillColor=#fad9d5;strokeColor=#ae4132;fontColor=#000000;fontSize=20;fontStyle=1" vertex="1" parent="1">
          <mxGeometry x="128" y="9853" width="79" height="60" as="geometry" />
        </mxCell>
        <mxCell id="ZYo6UWv2TKNKh4nMed5W-7" style="edgeStyle=orthogonalEdgeStyle;rounded=0;sketch=0;orthogonalLoop=1;jettySize=auto;html=1;fontColor=#000000;strokeColor=#000000;exitX=1;exitY=0.5;exitDx=0;exitDy=0;entryX=0;entryY=0.5;entryDx=0;entryDy=0;" edge="1" parent="1" source="ZYo6UWv2TKNKh4nMed5W-6" target="ZYo6UWv2TKNKh4nMed5W-8">
          <mxGeometry relative="1" as="geometry">
            <mxPoint x="269" y="9932" as="targetPoint" />
          </mxGeometry>
        </mxCell>
        <mxCell id="ZYo6UWv2TKNKh4nMed5W-8" value="23" style="rounded=0;whiteSpace=wrap;html=1;sketch=0;fillColor=#fad9d5;strokeColor=#ae4132;fontColor=#000000;fontSize=20;fontStyle=1" vertex="1" parent="1">
          <mxGeometry x="291" y="9853" width="89" height="60" as="geometry" />
        </mxCell>
        <mxCell id="ZYo6UWv2TKNKh4nMed5W-9" style="edgeStyle=orthogonalEdgeStyle;rounded=0;sketch=0;orthogonalLoop=1;jettySize=auto;html=1;strokeColor=#000000;fontColor=#000000;entryX=0;entryY=0.5;entryDx=0;entryDy=0;exitX=1;exitY=0.5;exitDx=0;exitDy=0;" edge="1" parent="1" source="ZYo6UWv2TKNKh4nMed5W-8" target="ZYo6UWv2TKNKh4nMed5W-10">
          <mxGeometry relative="1" as="geometry">
            <mxPoint x="418" y="9933" as="sourcePoint" />
            <mxPoint x="380" y="9883" as="targetPoint" />
          </mxGeometry>
        </mxCell>
        <mxCell id="ZYo6UWv2TKNKh4nMed5W-10" value="3" style="rounded=0;whiteSpace=wrap;html=1;sketch=0;fillColor=#fad9d5;strokeColor=#ae4132;fontColor=#000000;fontSize=20;fontStyle=1" vertex="1" parent="1">
          <mxGeometry x="467" y="9853" width="86" height="60" as="geometry" />
        </mxCell>
        <mxCell id="ZYo6UWv2TKNKh4nMed5W-11" style="edgeStyle=orthogonalEdgeStyle;rounded=0;sketch=0;orthogonalLoop=1;jettySize=auto;html=1;strokeColor=#000000;fontColor=#000000;exitX=1;exitY=0.5;exitDx=0;exitDy=0;entryX=0;entryY=0.5;entryDx=0;entryDy=0;" edge="1" parent="1" source="ZYo6UWv2TKNKh4nMed5W-10" target="ZYo6UWv2TKNKh4nMed5W-12">
          <mxGeometry relative="1" as="geometry">
            <mxPoint x="614" y="9922" as="targetPoint" />
          </mxGeometry>
        </mxCell>
        <mxCell id="ZYo6UWv2TKNKh4nMed5W-12" value="11" style="rounded=0;whiteSpace=wrap;html=1;sketch=0;fillColor=#fad9d5;strokeColor=#ae4132;fontColor=#000000;fontSize=20;fontStyle=1" vertex="1" parent="1">
          <mxGeometry x="633" y="9853" width="92" height="60" as="geometry" />
        </mxCell>
        <mxCell id="ZYo6UWv2TKNKh4nMed5W-13" style="edgeStyle=orthogonalEdgeStyle;rounded=0;orthogonalLoop=1;jettySize=auto;html=1;entryX=0.5;entryY=0;entryDx=0;entryDy=0;fontSize=26;fontColor=#000000;strokeColor=#000000;" edge="1" parent="1" source="ZYo6UWv2TKNKh4nMed5W-14" target="ZYo6UWv2TKNKh4nMed5W-6">
          <mxGeometry relative="1" as="geometry" />
        </mxCell>
        <mxCell id="ZYo6UWv2TKNKh4nMed5W-14" value="head" style="text;html=1;align=center;verticalAlign=middle;whiteSpace=wrap;rounded=0;fontSize=26;fontStyle=1;fontColor=#000000;" vertex="1" parent="1">
          <mxGeometry x="147.5" y="9777" width="40" height="30" as="geometry" />
        </mxCell>
        <mxCell id="ZYo6UWv2TKNKh4nMed5W-15" style="edgeStyle=orthogonalEdgeStyle;rounded=0;sketch=0;orthogonalLoop=1;jettySize=auto;html=1;entryX=0.5;entryY=0;entryDx=0;entryDy=0;strokeColor=#000000;fontColor=#000000;" edge="1" parent="1" source="ZYo6UWv2TKNKh4nMed5W-16" target="ZYo6UWv2TKNKh4nMed5W-12">
          <mxGeometry relative="1" as="geometry" />
        </mxCell>
        <mxCell id="ZYo6UWv2TKNKh4nMed5W-16" value="tail" style="text;html=1;align=center;verticalAlign=middle;whiteSpace=wrap;rounded=0;fontSize=26;fontStyle=1;fontColor=#000000;" vertex="1" parent="1">
          <mxGeometry x="659" y="9775" width="40" height="30" as="geometry" />
        </mxCell>
        <mxCell id="ZYo6UWv2TKNKh4nMed5W-17" style="edgeStyle=orthogonalEdgeStyle;rounded=0;orthogonalLoop=1;jettySize=auto;html=1;entryX=0.5;entryY=1;entryDx=0;entryDy=0;fontColor=#050505;strokeColor=#432D57;fillColor=#76608a;" edge="1" parent="1" source="ZYo6UWv2TKNKh4nMed5W-18" target="ZYo6UWv2TKNKh4nMed5W-6">
          <mxGeometry relative="1" as="geometry" />
        </mxCell>
        <mxCell id="ZYo6UWv2TKNKh4nMed5W-18" value="slow" style="rounded=0;whiteSpace=wrap;html=1;sketch=0;strokeColor=#432D57;fontColor=#ffffff;fontSize=20;fontStyle=1;fillColor=#76608a;" vertex="1" parent="1">
          <mxGeometry x="136.5" y="9997" width="61.5" height="60" as="geometry" />
        </mxCell>
        <mxCell id="ZYo6UWv2TKNKh4nMed5W-19" style="edgeStyle=orthogonalEdgeStyle;rounded=0;orthogonalLoop=1;jettySize=auto;html=1;entryX=0.5;entryY=1;entryDx=0;entryDy=0;fontColor=#050505;strokeColor=#432D57;fillColor=#76608a;" edge="1" parent="1" source="ZYo6UWv2TKNKh4nMed5W-20" target="ZYo6UWv2TKNKh4nMed5W-18">
          <mxGeometry relative="1" as="geometry" />
        </mxCell>
        <mxCell id="ZYo6UWv2TKNKh4nMed5W-20" value="fast" style="rounded=0;whiteSpace=wrap;html=1;sketch=0;strokeColor=#432D57;fontColor=#ffffff;fontSize=20;fontStyle=1;fillColor=#76608a;" vertex="1" parent="1">
          <mxGeometry x="137.5" y="10098" width="61.5" height="60" as="geometry" />
        </mxCell>
        <mxCell id="ZYo6UWv2TKNKh4nMed5W-21" value="&lt;div style=&quot;font-size: 30px&quot;&gt;&lt;font color=&quot;#050505&quot; style=&quot;font-size: 30px&quot;&gt;&lt;span style=&quot;font-weight: 400&quot;&gt;Node fastPointer = head;&lt;/span&gt;&lt;/font&gt;&lt;/div&gt;&lt;div style=&quot;font-size: 30px&quot;&gt;&lt;font color=&quot;#050505&quot; style=&quot;font-size: 30px&quot;&gt;&lt;span style=&quot;font-weight: 400&quot;&gt;Node slowPointer = head;&lt;/span&gt;&lt;/font&gt;&lt;/div&gt;" style="text;html=1;align=left;verticalAlign=middle;resizable=0;points=[];autosize=1;fontStyle=1" vertex="1" parent="1">
          <mxGeometry x="224" y="9765" width="350" height="32" as="geometry" />
        </mxCell>
        <mxCell id="ZYo6UWv2TKNKh4nMed5W-22" value="&lt;b&gt;&lt;font style=&quot;font-size: 35px&quot; color=&quot;#050505&quot;&gt;1&lt;/font&gt;&lt;/b&gt;" style="text;html=1;align=center;verticalAlign=middle;resizable=0;points=[];autosize=1;" vertex="1" parent="1">
          <mxGeometry x="10" y="9864" width="29" height="25" as="geometry" />
        </mxCell>
        <mxCell id="ZYo6UWv2TKNKh4nMed5W-23" value="7" style="rounded=0;whiteSpace=wrap;html=1;sketch=0;fillColor=#fad9d5;strokeColor=#ae4132;fontColor=#000000;fontSize=20;fontStyle=1" vertex="1" parent="1">
          <mxGeometry x="130" y="10349" width="79" height="60" as="geometry" />
        </mxCell>
        <mxCell id="ZYo6UWv2TKNKh4nMed5W-24" style="edgeStyle=orthogonalEdgeStyle;rounded=0;sketch=0;orthogonalLoop=1;jettySize=auto;html=1;fontColor=#000000;strokeColor=#000000;exitX=1;exitY=0.5;exitDx=0;exitDy=0;entryX=0;entryY=0.5;entryDx=0;entryDy=0;" edge="1" parent="1" source="ZYo6UWv2TKNKh4nMed5W-23" target="ZYo6UWv2TKNKh4nMed5W-25">
          <mxGeometry relative="1" as="geometry">
            <mxPoint x="271" y="10428" as="targetPoint" />
          </mxGeometry>
        </mxCell>
        <mxCell id="ZYo6UWv2TKNKh4nMed5W-25" value="23" style="rounded=0;whiteSpace=wrap;html=1;sketch=0;fillColor=#fad9d5;strokeColor=#ae4132;fontColor=#000000;fontSize=20;fontStyle=1" vertex="1" parent="1">
          <mxGeometry x="293" y="10349" width="89" height="60" as="geometry" />
        </mxCell>
        <mxCell id="ZYo6UWv2TKNKh4nMed5W-26" style="edgeStyle=orthogonalEdgeStyle;rounded=0;sketch=0;orthogonalLoop=1;jettySize=auto;html=1;strokeColor=#000000;fontColor=#000000;entryX=0;entryY=0.5;entryDx=0;entryDy=0;exitX=1;exitY=0.5;exitDx=0;exitDy=0;" edge="1" parent="1" source="ZYo6UWv2TKNKh4nMed5W-25" target="ZYo6UWv2TKNKh4nMed5W-27">
          <mxGeometry relative="1" as="geometry">
            <mxPoint x="420" y="10429" as="sourcePoint" />
            <mxPoint x="382" y="10379" as="targetPoint" />
          </mxGeometry>
        </mxCell>
        <mxCell id="ZYo6UWv2TKNKh4nMed5W-27" value="3" style="rounded=0;whiteSpace=wrap;html=1;sketch=0;fillColor=#fad9d5;strokeColor=#ae4132;fontColor=#000000;fontSize=20;fontStyle=1" vertex="1" parent="1">
          <mxGeometry x="469" y="10349" width="86" height="60" as="geometry" />
        </mxCell>
        <mxCell id="ZYo6UWv2TKNKh4nMed5W-28" style="edgeStyle=orthogonalEdgeStyle;rounded=0;sketch=0;orthogonalLoop=1;jettySize=auto;html=1;strokeColor=#000000;fontColor=#000000;exitX=1;exitY=0.5;exitDx=0;exitDy=0;entryX=0;entryY=0.5;entryDx=0;entryDy=0;" edge="1" parent="1" source="ZYo6UWv2TKNKh4nMed5W-27" target="ZYo6UWv2TKNKh4nMed5W-29">
          <mxGeometry relative="1" as="geometry">
            <mxPoint x="616" y="10418" as="targetPoint" />
          </mxGeometry>
        </mxCell>
        <mxCell id="ZYo6UWv2TKNKh4nMed5W-29" value="11" style="rounded=0;whiteSpace=wrap;html=1;sketch=0;fillColor=#fad9d5;strokeColor=#ae4132;fontColor=#000000;fontSize=20;fontStyle=1" vertex="1" parent="1">
          <mxGeometry x="635" y="10349" width="92" height="60" as="geometry" />
        </mxCell>
        <mxCell id="ZYo6UWv2TKNKh4nMed5W-30" style="edgeStyle=orthogonalEdgeStyle;rounded=0;orthogonalLoop=1;jettySize=auto;html=1;entryX=0.5;entryY=0;entryDx=0;entryDy=0;fontSize=26;fontColor=#000000;strokeColor=#000000;" edge="1" parent="1" source="ZYo6UWv2TKNKh4nMed5W-31" target="ZYo6UWv2TKNKh4nMed5W-23">
          <mxGeometry relative="1" as="geometry" />
        </mxCell>
        <mxCell id="ZYo6UWv2TKNKh4nMed5W-31" value="head" style="text;html=1;align=center;verticalAlign=middle;whiteSpace=wrap;rounded=0;fontSize=26;fontStyle=1;fontColor=#000000;" vertex="1" parent="1">
          <mxGeometry x="149.5" y="10273" width="40" height="30" as="geometry" />
        </mxCell>
        <mxCell id="ZYo6UWv2TKNKh4nMed5W-32" style="edgeStyle=orthogonalEdgeStyle;rounded=0;sketch=0;orthogonalLoop=1;jettySize=auto;html=1;entryX=0.5;entryY=0;entryDx=0;entryDy=0;strokeColor=#000000;fontColor=#000000;" edge="1" parent="1" source="ZYo6UWv2TKNKh4nMed5W-33" target="ZYo6UWv2TKNKh4nMed5W-29">
          <mxGeometry relative="1" as="geometry" />
        </mxCell>
        <mxCell id="ZYo6UWv2TKNKh4nMed5W-33" value="tail" style="text;html=1;align=center;verticalAlign=middle;whiteSpace=wrap;rounded=0;fontSize=26;fontStyle=1;fontColor=#000000;" vertex="1" parent="1">
          <mxGeometry x="661" y="10271" width="40" height="30" as="geometry" />
        </mxCell>
        <mxCell id="ZYo6UWv2TKNKh4nMed5W-34" style="edgeStyle=orthogonalEdgeStyle;rounded=0;orthogonalLoop=1;jettySize=auto;html=1;entryX=0.5;entryY=1;entryDx=0;entryDy=0;fontColor=#050505;strokeColor=#2D7600;fillColor=#60a917;" edge="1" parent="1" source="ZYo6UWv2TKNKh4nMed5W-35" target="ZYo6UWv2TKNKh4nMed5W-23">
          <mxGeometry relative="1" as="geometry" />
        </mxCell>
        <mxCell id="ZYo6UWv2TKNKh4nMed5W-35" value="slow" style="rounded=0;whiteSpace=wrap;html=1;sketch=0;strokeColor=#2D7600;fontColor=#ffffff;fontSize=20;fontStyle=1;fillColor=#60a917;" vertex="1" parent="1">
          <mxGeometry x="138.5" y="10493" width="61.5" height="60" as="geometry" />
        </mxCell>
        <mxCell id="ZYo6UWv2TKNKh4nMed5W-36" style="edgeStyle=orthogonalEdgeStyle;rounded=0;orthogonalLoop=1;jettySize=auto;html=1;entryX=0.5;entryY=1;entryDx=0;entryDy=0;strokeColor=#050505;fontColor=#050505;" edge="1" parent="1" source="ZYo6UWv2TKNKh4nMed5W-37" target="ZYo6UWv2TKNKh4nMed5W-25">
          <mxGeometry relative="1" as="geometry" />
        </mxCell>
        <mxCell id="ZYo6UWv2TKNKh4nMed5W-37" value="fast" style="rounded=0;whiteSpace=wrap;html=1;sketch=0;strokeColor=#432D57;fontColor=#ffffff;fontSize=20;fontStyle=1;fillColor=#76608a;" vertex="1" parent="1">
          <mxGeometry x="307.5" y="10493" width="61.5" height="60" as="geometry" />
        </mxCell>
        <mxCell id="ZYo6UWv2TKNKh4nMed5W-38" value="&lt;div style=&quot;font-size: 30px&quot;&gt;&lt;br&gt;&lt;/div&gt;&lt;div&gt;&lt;font color=&quot;#050505&quot;&gt;&lt;span style=&quot;font-size: 30px ; font-weight: 400&quot;&gt;if(fastPointer == null) return null;&amp;nbsp;&lt;/span&gt;&lt;/font&gt;&lt;/div&gt;&lt;div&gt;&lt;font color=&quot;#050505&quot;&gt;&lt;span style=&quot;font-size: 30px ; font-weight: 400&quot;&gt;fastPointer = fastPointer.next;&lt;/span&gt;&lt;br&gt;&lt;/font&gt;&lt;/div&gt;" style="text;html=1;align=left;verticalAlign=middle;resizable=0;points=[];autosize=1;fontStyle=1" vertex="1" parent="1">
          <mxGeometry x="230" y="10240" width="444" height="58" as="geometry" />
        </mxCell>
        <mxCell id="ZYo6UWv2TKNKh4nMed5W-39" value="&lt;b&gt;&lt;font style=&quot;font-size: 35px&quot; color=&quot;#050505&quot;&gt;2&lt;/font&gt;&lt;/b&gt;" style="text;html=1;align=center;verticalAlign=middle;resizable=0;points=[];autosize=1;" vertex="1" parent="1">
          <mxGeometry x="12" y="10360" width="29" height="25" as="geometry" />
        </mxCell>
        <mxCell id="ZYo6UWv2TKNKh4nMed5W-40" value="&lt;font color=&quot;#050505&quot; size=&quot;1&quot;&gt;&lt;span style=&quot;font-size: 27px&quot;&gt;for(int i = 0; i &amp;lt; k; i++) {&lt;/span&gt;&lt;/font&gt;" style="text;html=1;align=left;verticalAlign=middle;resizable=0;points=[];autosize=1;fontStyle=1" vertex="1" parent="1">
          <mxGeometry x="21.5" y="10207" width="312" height="23" as="geometry" />
        </mxCell>
        <mxCell id="ZYo6UWv2TKNKh4nMed5W-41" value="7" style="rounded=0;whiteSpace=wrap;html=1;sketch=0;fillColor=#fad9d5;strokeColor=#ae4132;fontColor=#000000;fontSize=20;fontStyle=1" vertex="1" parent="1">
          <mxGeometry x="128" y="10723" width="79" height="60" as="geometry" />
        </mxCell>
        <mxCell id="ZYo6UWv2TKNKh4nMed5W-42" style="edgeStyle=orthogonalEdgeStyle;rounded=0;sketch=0;orthogonalLoop=1;jettySize=auto;html=1;fontColor=#000000;strokeColor=#000000;exitX=1;exitY=0.5;exitDx=0;exitDy=0;entryX=0;entryY=0.5;entryDx=0;entryDy=0;" edge="1" parent="1" source="ZYo6UWv2TKNKh4nMed5W-41" target="ZYo6UWv2TKNKh4nMed5W-43">
          <mxGeometry relative="1" as="geometry">
            <mxPoint x="269" y="10802" as="targetPoint" />
          </mxGeometry>
        </mxCell>
        <mxCell id="ZYo6UWv2TKNKh4nMed5W-43" value="23" style="rounded=0;whiteSpace=wrap;html=1;sketch=0;fillColor=#fad9d5;strokeColor=#ae4132;fontColor=#000000;fontSize=20;fontStyle=1" vertex="1" parent="1">
          <mxGeometry x="291" y="10723" width="89" height="60" as="geometry" />
        </mxCell>
        <mxCell id="ZYo6UWv2TKNKh4nMed5W-44" style="edgeStyle=orthogonalEdgeStyle;rounded=0;sketch=0;orthogonalLoop=1;jettySize=auto;html=1;strokeColor=#000000;fontColor=#000000;entryX=0;entryY=0.5;entryDx=0;entryDy=0;exitX=1;exitY=0.5;exitDx=0;exitDy=0;" edge="1" parent="1" source="ZYo6UWv2TKNKh4nMed5W-43" target="ZYo6UWv2TKNKh4nMed5W-45">
          <mxGeometry relative="1" as="geometry">
            <mxPoint x="418" y="10803" as="sourcePoint" />
            <mxPoint x="380" y="10753" as="targetPoint" />
          </mxGeometry>
        </mxCell>
        <mxCell id="ZYo6UWv2TKNKh4nMed5W-45" value="3" style="rounded=0;whiteSpace=wrap;html=1;sketch=0;fillColor=#fad9d5;strokeColor=#ae4132;fontColor=#000000;fontSize=20;fontStyle=1" vertex="1" parent="1">
          <mxGeometry x="467" y="10723" width="86" height="60" as="geometry" />
        </mxCell>
        <mxCell id="ZYo6UWv2TKNKh4nMed5W-46" style="edgeStyle=orthogonalEdgeStyle;rounded=0;sketch=0;orthogonalLoop=1;jettySize=auto;html=1;strokeColor=#000000;fontColor=#000000;exitX=1;exitY=0.5;exitDx=0;exitDy=0;entryX=0;entryY=0.5;entryDx=0;entryDy=0;" edge="1" parent="1" source="ZYo6UWv2TKNKh4nMed5W-45" target="ZYo6UWv2TKNKh4nMed5W-47">
          <mxGeometry relative="1" as="geometry">
            <mxPoint x="614" y="10792" as="targetPoint" />
          </mxGeometry>
        </mxCell>
        <mxCell id="ZYo6UWv2TKNKh4nMed5W-47" value="11" style="rounded=0;whiteSpace=wrap;html=1;sketch=0;fillColor=#fad9d5;strokeColor=#ae4132;fontColor=#000000;fontSize=20;fontStyle=1" vertex="1" parent="1">
          <mxGeometry x="633" y="10723" width="92" height="60" as="geometry" />
        </mxCell>
        <mxCell id="ZYo6UWv2TKNKh4nMed5W-48" style="edgeStyle=orthogonalEdgeStyle;rounded=0;orthogonalLoop=1;jettySize=auto;html=1;entryX=0.5;entryY=0;entryDx=0;entryDy=0;fontSize=26;fontColor=#000000;strokeColor=#000000;" edge="1" parent="1" source="ZYo6UWv2TKNKh4nMed5W-49" target="ZYo6UWv2TKNKh4nMed5W-41">
          <mxGeometry relative="1" as="geometry" />
        </mxCell>
        <mxCell id="ZYo6UWv2TKNKh4nMed5W-49" value="head" style="text;html=1;align=center;verticalAlign=middle;whiteSpace=wrap;rounded=0;fontSize=26;fontStyle=1;fontColor=#000000;" vertex="1" parent="1">
          <mxGeometry x="147.5" y="10647" width="40" height="30" as="geometry" />
        </mxCell>
        <mxCell id="ZYo6UWv2TKNKh4nMed5W-50" style="edgeStyle=orthogonalEdgeStyle;rounded=0;sketch=0;orthogonalLoop=1;jettySize=auto;html=1;entryX=0.5;entryY=0;entryDx=0;entryDy=0;strokeColor=#000000;fontColor=#000000;" edge="1" parent="1" source="ZYo6UWv2TKNKh4nMed5W-51" target="ZYo6UWv2TKNKh4nMed5W-47">
          <mxGeometry relative="1" as="geometry" />
        </mxCell>
        <mxCell id="ZYo6UWv2TKNKh4nMed5W-51" value="tail" style="text;html=1;align=center;verticalAlign=middle;whiteSpace=wrap;rounded=0;fontSize=26;fontStyle=1;fontColor=#000000;" vertex="1" parent="1">
          <mxGeometry x="659" y="10645" width="40" height="30" as="geometry" />
        </mxCell>
        <mxCell id="ZYo6UWv2TKNKh4nMed5W-52" style="edgeStyle=orthogonalEdgeStyle;rounded=0;orthogonalLoop=1;jettySize=auto;html=1;entryX=0.5;entryY=1;entryDx=0;entryDy=0;fontColor=#050505;strokeColor=#2D7600;fillColor=#60a917;" edge="1" parent="1" source="ZYo6UWv2TKNKh4nMed5W-53" target="ZYo6UWv2TKNKh4nMed5W-41">
          <mxGeometry relative="1" as="geometry" />
        </mxCell>
        <mxCell id="ZYo6UWv2TKNKh4nMed5W-53" value="slow" style="rounded=0;whiteSpace=wrap;html=1;sketch=0;strokeColor=#2D7600;fontColor=#ffffff;fontSize=20;fontStyle=1;fillColor=#60a917;" vertex="1" parent="1">
          <mxGeometry x="136.5" y="10867" width="61.5" height="60" as="geometry" />
        </mxCell>
        <mxCell id="ZYo6UWv2TKNKh4nMed5W-54" style="edgeStyle=orthogonalEdgeStyle;rounded=0;orthogonalLoop=1;jettySize=auto;html=1;entryX=0.5;entryY=1;entryDx=0;entryDy=0;strokeColor=#050505;fontColor=#050505;" edge="1" parent="1" source="ZYo6UWv2TKNKh4nMed5W-55" target="ZYo6UWv2TKNKh4nMed5W-45">
          <mxGeometry relative="1" as="geometry" />
        </mxCell>
        <mxCell id="ZYo6UWv2TKNKh4nMed5W-55" value="fast" style="rounded=0;whiteSpace=wrap;html=1;sketch=0;strokeColor=#432D57;fontColor=#ffffff;fontSize=20;fontStyle=1;fillColor=#76608a;" vertex="1" parent="1">
          <mxGeometry x="479.25" y="10867" width="61.5" height="60" as="geometry" />
        </mxCell>
        <mxCell id="ZYo6UWv2TKNKh4nMed5W-56" value="&lt;div style=&quot;font-size: 30px&quot;&gt;&lt;br&gt;&lt;/div&gt;&lt;div&gt;&lt;font color=&quot;#050505&quot;&gt;&lt;span style=&quot;font-size: 30px ; font-weight: 400&quot;&gt;if(fastPointer == null) return null;&amp;nbsp;&lt;/span&gt;&lt;/font&gt;&lt;/div&gt;&lt;div&gt;&lt;font color=&quot;#050505&quot;&gt;&lt;span style=&quot;font-size: 30px ; font-weight: 400&quot;&gt;fastPointer = fastPointer.next;&lt;/span&gt;&lt;br&gt;&lt;/font&gt;&lt;/div&gt;" style="text;html=1;align=left;verticalAlign=middle;resizable=0;points=[];autosize=1;fontStyle=1" vertex="1" parent="1">
          <mxGeometry x="228" y="10614" width="444" height="58" as="geometry" />
        </mxCell>
        <mxCell id="ZYo6UWv2TKNKh4nMed5W-57" value="&lt;b&gt;&lt;font style=&quot;font-size: 35px&quot; color=&quot;#050505&quot;&gt;3&lt;/font&gt;&lt;/b&gt;" style="text;html=1;align=center;verticalAlign=middle;resizable=0;points=[];autosize=1;" vertex="1" parent="1">
          <mxGeometry x="10" y="10734" width="29" height="25" as="geometry" />
        </mxCell>
        <mxCell id="ZYo6UWv2TKNKh4nMed5W-58" value="7" style="rounded=0;whiteSpace=wrap;html=1;sketch=0;fillColor=#fad9d5;strokeColor=#ae4132;fontColor=#000000;fontSize=20;fontStyle=1" vertex="1" parent="1">
          <mxGeometry x="128" y="11149" width="79" height="60" as="geometry" />
        </mxCell>
        <mxCell id="ZYo6UWv2TKNKh4nMed5W-59" style="edgeStyle=orthogonalEdgeStyle;rounded=0;sketch=0;orthogonalLoop=1;jettySize=auto;html=1;fontColor=#000000;strokeColor=#000000;exitX=1;exitY=0.5;exitDx=0;exitDy=0;entryX=0;entryY=0.5;entryDx=0;entryDy=0;" edge="1" parent="1" source="ZYo6UWv2TKNKh4nMed5W-58" target="ZYo6UWv2TKNKh4nMed5W-60">
          <mxGeometry relative="1" as="geometry">
            <mxPoint x="269" y="11228" as="targetPoint" />
          </mxGeometry>
        </mxCell>
        <mxCell id="ZYo6UWv2TKNKh4nMed5W-60" value="23" style="rounded=0;whiteSpace=wrap;html=1;sketch=0;fillColor=#fad9d5;strokeColor=#ae4132;fontColor=#000000;fontSize=20;fontStyle=1" vertex="1" parent="1">
          <mxGeometry x="291" y="11149" width="89" height="60" as="geometry" />
        </mxCell>
        <mxCell id="ZYo6UWv2TKNKh4nMed5W-61" style="edgeStyle=orthogonalEdgeStyle;rounded=0;sketch=0;orthogonalLoop=1;jettySize=auto;html=1;strokeColor=#000000;fontColor=#000000;entryX=0;entryY=0.5;entryDx=0;entryDy=0;exitX=1;exitY=0.5;exitDx=0;exitDy=0;" edge="1" parent="1" source="ZYo6UWv2TKNKh4nMed5W-60" target="ZYo6UWv2TKNKh4nMed5W-62">
          <mxGeometry relative="1" as="geometry">
            <mxPoint x="418" y="11229" as="sourcePoint" />
            <mxPoint x="380" y="11179" as="targetPoint" />
          </mxGeometry>
        </mxCell>
        <mxCell id="ZYo6UWv2TKNKh4nMed5W-62" value="3" style="rounded=0;whiteSpace=wrap;html=1;sketch=0;fillColor=#fad9d5;strokeColor=#ae4132;fontColor=#000000;fontSize=20;fontStyle=1" vertex="1" parent="1">
          <mxGeometry x="467" y="11149" width="86" height="60" as="geometry" />
        </mxCell>
        <mxCell id="ZYo6UWv2TKNKh4nMed5W-63" style="edgeStyle=orthogonalEdgeStyle;rounded=0;sketch=0;orthogonalLoop=1;jettySize=auto;html=1;strokeColor=#000000;fontColor=#000000;exitX=1;exitY=0.5;exitDx=0;exitDy=0;entryX=0;entryY=0.5;entryDx=0;entryDy=0;" edge="1" parent="1" source="ZYo6UWv2TKNKh4nMed5W-62" target="ZYo6UWv2TKNKh4nMed5W-64">
          <mxGeometry relative="1" as="geometry">
            <mxPoint x="614" y="11218" as="targetPoint" />
          </mxGeometry>
        </mxCell>
        <mxCell id="ZYo6UWv2TKNKh4nMed5W-64" value="11" style="rounded=0;whiteSpace=wrap;html=1;sketch=0;fillColor=#fad9d5;strokeColor=#ae4132;fontColor=#000000;fontSize=20;fontStyle=1" vertex="1" parent="1">
          <mxGeometry x="633" y="11149" width="92" height="60" as="geometry" />
        </mxCell>
        <mxCell id="ZYo6UWv2TKNKh4nMed5W-65" style="edgeStyle=orthogonalEdgeStyle;rounded=0;orthogonalLoop=1;jettySize=auto;html=1;entryX=0.5;entryY=0;entryDx=0;entryDy=0;fontSize=26;fontColor=#000000;strokeColor=#000000;" edge="1" parent="1" source="ZYo6UWv2TKNKh4nMed5W-66" target="ZYo6UWv2TKNKh4nMed5W-58">
          <mxGeometry relative="1" as="geometry" />
        </mxCell>
        <mxCell id="ZYo6UWv2TKNKh4nMed5W-66" value="head" style="text;html=1;align=center;verticalAlign=middle;whiteSpace=wrap;rounded=0;fontSize=26;fontStyle=1;fontColor=#000000;" vertex="1" parent="1">
          <mxGeometry x="147.5" y="11073" width="40" height="30" as="geometry" />
        </mxCell>
        <mxCell id="ZYo6UWv2TKNKh4nMed5W-67" style="edgeStyle=orthogonalEdgeStyle;rounded=0;sketch=0;orthogonalLoop=1;jettySize=auto;html=1;entryX=0.5;entryY=0;entryDx=0;entryDy=0;strokeColor=#000000;fontColor=#000000;" edge="1" parent="1" source="ZYo6UWv2TKNKh4nMed5W-68" target="ZYo6UWv2TKNKh4nMed5W-64">
          <mxGeometry relative="1" as="geometry" />
        </mxCell>
        <mxCell id="ZYo6UWv2TKNKh4nMed5W-68" value="tail" style="text;html=1;align=center;verticalAlign=middle;whiteSpace=wrap;rounded=0;fontSize=26;fontStyle=1;fontColor=#000000;" vertex="1" parent="1">
          <mxGeometry x="659" y="11071" width="40" height="30" as="geometry" />
        </mxCell>
        <mxCell id="ZYo6UWv2TKNKh4nMed5W-69" style="edgeStyle=orthogonalEdgeStyle;rounded=0;orthogonalLoop=1;jettySize=auto;html=1;entryX=0.5;entryY=1;entryDx=0;entryDy=0;fontColor=#050505;strokeColor=#432D57;fillColor=#76608a;" edge="1" parent="1" source="ZYo6UWv2TKNKh4nMed5W-70" target="ZYo6UWv2TKNKh4nMed5W-60">
          <mxGeometry relative="1" as="geometry" />
        </mxCell>
        <mxCell id="ZYo6UWv2TKNKh4nMed5W-70" value="slow" style="rounded=0;whiteSpace=wrap;html=1;sketch=0;strokeColor=#432D57;fontColor=#ffffff;fontSize=20;fontStyle=1;fillColor=#76608a;" vertex="1" parent="1">
          <mxGeometry x="304.75" y="11302" width="61.5" height="60" as="geometry" />
        </mxCell>
        <mxCell id="ZYo6UWv2TKNKh4nMed5W-71" style="edgeStyle=orthogonalEdgeStyle;rounded=0;orthogonalLoop=1;jettySize=auto;html=1;entryX=0.5;entryY=1;entryDx=0;entryDy=0;strokeColor=#050505;fontColor=#050505;" edge="1" parent="1" source="ZYo6UWv2TKNKh4nMed5W-72" target="ZYo6UWv2TKNKh4nMed5W-64">
          <mxGeometry relative="1" as="geometry" />
        </mxCell>
        <mxCell id="ZYo6UWv2TKNKh4nMed5W-72" value="fast" style="rounded=0;whiteSpace=wrap;html=1;sketch=0;strokeColor=#432D57;fontColor=#ffffff;fontSize=20;fontStyle=1;fillColor=#76608a;" vertex="1" parent="1">
          <mxGeometry x="648.5" y="11302" width="61.5" height="60" as="geometry" />
        </mxCell>
        <mxCell id="ZYo6UWv2TKNKh4nMed5W-73" value="&lt;div style=&quot;font-size: 30px&quot;&gt;&lt;/div&gt;&lt;font color=&quot;#050505&quot;&gt;&lt;span style=&quot;font-size: 30px ; font-weight: 400&quot;&gt;slowPointer = slowPointer.next;&lt;br&gt;fastPointer = fastPointer.next;&lt;/span&gt;&lt;/font&gt;" style="text;html=1;align=left;verticalAlign=middle;resizable=0;points=[];autosize=1;fontStyle=1" vertex="1" parent="1">
          <mxGeometry x="230" y="11075" width="419" height="44" as="geometry" />
        </mxCell>
        <mxCell id="ZYo6UWv2TKNKh4nMed5W-74" value="&lt;b&gt;&lt;font style=&quot;font-size: 35px&quot; color=&quot;#050505&quot;&gt;4&lt;/font&gt;&lt;/b&gt;" style="text;html=1;align=center;verticalAlign=middle;resizable=0;points=[];autosize=1;" vertex="1" parent="1">
          <mxGeometry x="10" y="11160" width="29" height="25" as="geometry" />
        </mxCell>
        <mxCell id="ZYo6UWv2TKNKh4nMed5W-75" value="&lt;font color=&quot;#050505&quot; size=&quot;1&quot;&gt;&lt;span style=&quot;font-size: 27px&quot;&gt;k = 0&lt;/span&gt;&lt;/font&gt;" style="text;html=1;align=left;verticalAlign=middle;resizable=0;points=[];autosize=1;fontStyle=1" vertex="1" parent="1">
          <mxGeometry x="505" y="10449" width="72" height="23" as="geometry" />
        </mxCell>
        <mxCell id="ZYo6UWv2TKNKh4nMed5W-76" value="&lt;font color=&quot;#050505&quot; size=&quot;1&quot;&gt;&lt;span style=&quot;font-size: 27px&quot;&gt;k = 1&lt;/span&gt;&lt;/font&gt;" style="text;html=1;align=left;verticalAlign=middle;resizable=0;points=[];autosize=1;fontStyle=1" vertex="1" parent="1">
          <mxGeometry x="607" y="10857" width="72" height="23" as="geometry" />
        </mxCell>
        <mxCell id="ZYo6UWv2TKNKh4nMed5W-77" value="&lt;font color=&quot;#050505&quot; size=&quot;1&quot;&gt;&lt;span style=&quot;background-color: rgb(74 , 195 , 255) ; font-size: 30px&quot;&gt;For k = 2&lt;/span&gt;&lt;/font&gt;" style="text;html=1;align=left;verticalAlign=middle;resizable=0;points=[];autosize=1;fontStyle=1" vertex="1" parent="1">
          <mxGeometry x="26" y="9725" width="134" height="24" as="geometry" />
        </mxCell>
        <mxCell id="ZYo6UWv2TKNKh4nMed5W-78" value="&lt;font color=&quot;#050505&quot;&gt;&lt;span style=&quot;font-size: 27px&quot;&gt;while(fastPointer != null) {&lt;/span&gt;&lt;/font&gt;" style="text;html=1;align=left;verticalAlign=middle;resizable=0;points=[];autosize=1;fontStyle=1" vertex="1" parent="1">
          <mxGeometry x="17.5" y="10997" width="349" height="23" as="geometry" />
        </mxCell>
        <mxCell id="ZYo6UWv2TKNKh4nMed5W-79" value="7" style="rounded=0;whiteSpace=wrap;html=1;sketch=0;fillColor=#fad9d5;strokeColor=#ae4132;fontColor=#000000;fontSize=20;fontStyle=1" vertex="1" parent="1">
          <mxGeometry x="124" y="11482" width="79" height="60" as="geometry" />
        </mxCell>
        <mxCell id="ZYo6UWv2TKNKh4nMed5W-80" style="edgeStyle=orthogonalEdgeStyle;rounded=0;sketch=0;orthogonalLoop=1;jettySize=auto;html=1;fontColor=#000000;strokeColor=#000000;exitX=1;exitY=0.5;exitDx=0;exitDy=0;entryX=0;entryY=0.5;entryDx=0;entryDy=0;" edge="1" parent="1" source="ZYo6UWv2TKNKh4nMed5W-79" target="ZYo6UWv2TKNKh4nMed5W-81">
          <mxGeometry relative="1" as="geometry">
            <mxPoint x="265" y="11561" as="targetPoint" />
          </mxGeometry>
        </mxCell>
        <mxCell id="ZYo6UWv2TKNKh4nMed5W-81" value="23" style="rounded=0;whiteSpace=wrap;html=1;sketch=0;fillColor=#fad9d5;strokeColor=#ae4132;fontColor=#000000;fontSize=20;fontStyle=1" vertex="1" parent="1">
          <mxGeometry x="287" y="11482" width="89" height="60" as="geometry" />
        </mxCell>
        <mxCell id="ZYo6UWv2TKNKh4nMed5W-82" style="edgeStyle=orthogonalEdgeStyle;rounded=0;sketch=0;orthogonalLoop=1;jettySize=auto;html=1;strokeColor=#000000;fontColor=#000000;entryX=0;entryY=0.5;entryDx=0;entryDy=0;exitX=1;exitY=0.5;exitDx=0;exitDy=0;" edge="1" parent="1" source="ZYo6UWv2TKNKh4nMed5W-81" target="ZYo6UWv2TKNKh4nMed5W-83">
          <mxGeometry relative="1" as="geometry">
            <mxPoint x="414" y="11562" as="sourcePoint" />
            <mxPoint x="376" y="11512" as="targetPoint" />
          </mxGeometry>
        </mxCell>
        <mxCell id="ZYo6UWv2TKNKh4nMed5W-83" value="3" style="rounded=0;whiteSpace=wrap;html=1;sketch=0;fillColor=#fad9d5;strokeColor=#ae4132;fontColor=#000000;fontSize=20;fontStyle=1" vertex="1" parent="1">
          <mxGeometry x="463" y="11482" width="86" height="60" as="geometry" />
        </mxCell>
        <mxCell id="ZYo6UWv2TKNKh4nMed5W-84" style="edgeStyle=orthogonalEdgeStyle;rounded=0;sketch=0;orthogonalLoop=1;jettySize=auto;html=1;strokeColor=#000000;fontColor=#000000;exitX=1;exitY=0.5;exitDx=0;exitDy=0;entryX=0;entryY=0.5;entryDx=0;entryDy=0;" edge="1" parent="1" source="ZYo6UWv2TKNKh4nMed5W-83" target="ZYo6UWv2TKNKh4nMed5W-85">
          <mxGeometry relative="1" as="geometry">
            <mxPoint x="610" y="11551" as="targetPoint" />
          </mxGeometry>
        </mxCell>
        <mxCell id="ZYo6UWv2TKNKh4nMed5W-85" value="11" style="rounded=0;whiteSpace=wrap;html=1;sketch=0;fillColor=#fad9d5;strokeColor=#ae4132;fontColor=#000000;fontSize=20;fontStyle=1" vertex="1" parent="1">
          <mxGeometry x="629" y="11482" width="92" height="60" as="geometry" />
        </mxCell>
        <mxCell id="ZYo6UWv2TKNKh4nMed5W-86" style="edgeStyle=orthogonalEdgeStyle;rounded=0;orthogonalLoop=1;jettySize=auto;html=1;entryX=0.5;entryY=0;entryDx=0;entryDy=0;fontSize=26;fontColor=#000000;strokeColor=#000000;" edge="1" parent="1" source="ZYo6UWv2TKNKh4nMed5W-87" target="ZYo6UWv2TKNKh4nMed5W-79">
          <mxGeometry relative="1" as="geometry" />
        </mxCell>
        <mxCell id="ZYo6UWv2TKNKh4nMed5W-87" value="head" style="text;html=1;align=center;verticalAlign=middle;whiteSpace=wrap;rounded=0;fontSize=26;fontStyle=1;fontColor=#000000;" vertex="1" parent="1">
          <mxGeometry x="143.5" y="11406" width="40" height="30" as="geometry" />
        </mxCell>
        <mxCell id="ZYo6UWv2TKNKh4nMed5W-88" style="edgeStyle=orthogonalEdgeStyle;rounded=0;sketch=0;orthogonalLoop=1;jettySize=auto;html=1;entryX=0.5;entryY=0;entryDx=0;entryDy=0;strokeColor=#000000;fontColor=#000000;" edge="1" parent="1" source="ZYo6UWv2TKNKh4nMed5W-89" target="ZYo6UWv2TKNKh4nMed5W-85">
          <mxGeometry relative="1" as="geometry" />
        </mxCell>
        <mxCell id="ZYo6UWv2TKNKh4nMed5W-89" value="tail" style="text;html=1;align=center;verticalAlign=middle;whiteSpace=wrap;rounded=0;fontSize=26;fontStyle=1;fontColor=#000000;" vertex="1" parent="1">
          <mxGeometry x="655" y="11404" width="40" height="30" as="geometry" />
        </mxCell>
        <mxCell id="ZYo6UWv2TKNKh4nMed5W-90" style="edgeStyle=orthogonalEdgeStyle;rounded=0;orthogonalLoop=1;jettySize=auto;html=1;entryX=0.5;entryY=1;entryDx=0;entryDy=0;fontColor=#050505;strokeColor=#432D57;fillColor=#76608a;" edge="1" parent="1" source="ZYo6UWv2TKNKh4nMed5W-91" target="ZYo6UWv2TKNKh4nMed5W-83">
          <mxGeometry relative="1" as="geometry" />
        </mxCell>
        <mxCell id="ZYo6UWv2TKNKh4nMed5W-91" value="slow" style="rounded=0;whiteSpace=wrap;html=1;sketch=0;strokeColor=#432D57;fontColor=#ffffff;fontSize=20;fontStyle=1;fillColor=#76608a;" vertex="1" parent="1">
          <mxGeometry x="475.25" y="11638" width="61.5" height="60" as="geometry" />
        </mxCell>
        <mxCell id="ZYo6UWv2TKNKh4nMed5W-92" style="edgeStyle=orthogonalEdgeStyle;rounded=0;orthogonalLoop=1;jettySize=auto;html=1;entryX=0.5;entryY=1;entryDx=0;entryDy=0;strokeColor=#050505;fontColor=#050505;" edge="1" parent="1" source="ZYo6UWv2TKNKh4nMed5W-93" target="ZYo6UWv2TKNKh4nMed5W-96">
          <mxGeometry relative="1" as="geometry" />
        </mxCell>
        <mxCell id="ZYo6UWv2TKNKh4nMed5W-93" value="fast" style="rounded=0;whiteSpace=wrap;html=1;sketch=0;strokeColor=#432D57;fontColor=#ffffff;fontSize=20;fontStyle=1;fillColor=#76608a;" vertex="1" parent="1">
          <mxGeometry x="768.25" y="11635" width="61.5" height="60" as="geometry" />
        </mxCell>
        <mxCell id="ZYo6UWv2TKNKh4nMed5W-94" value="&lt;div style=&quot;font-size: 30px&quot;&gt;&lt;/div&gt;&lt;font color=&quot;#050505&quot;&gt;&lt;span style=&quot;font-size: 30px ; font-weight: 400&quot;&gt;slowPointer = slowPointer.next;&lt;br&gt;fastPointer = fastPointer.next;&lt;/span&gt;&lt;/font&gt;" style="text;html=1;align=left;verticalAlign=middle;resizable=0;points=[];autosize=1;fontStyle=1" vertex="1" parent="1">
          <mxGeometry x="226" y="11408" width="419" height="44" as="geometry" />
        </mxCell>
        <mxCell id="ZYo6UWv2TKNKh4nMed5W-95" value="&lt;b&gt;&lt;font style=&quot;font-size: 35px&quot; color=&quot;#050505&quot;&gt;5&lt;/font&gt;&lt;/b&gt;" style="text;html=1;align=center;verticalAlign=middle;resizable=0;points=[];autosize=1;" vertex="1" parent="1">
          <mxGeometry x="6.000000000000001" y="11493" width="29" height="25" as="geometry" />
        </mxCell>
        <mxCell id="ZYo6UWv2TKNKh4nMed5W-96" value="&lt;b&gt;&lt;i&gt;NULL&lt;/i&gt;&lt;/b&gt;" style="text;html=1;strokeColor=none;fillColor=none;align=center;verticalAlign=middle;whiteSpace=wrap;rounded=0;fontSize=26;fontColor=#3D3D3D;" vertex="1" parent="1">
          <mxGeometry x="779" y="11502" width="40" height="20" as="geometry" />
        </mxCell>
        <mxCell id="ZYo6UWv2TKNKh4nMed5W-97" value="&lt;b&gt;&lt;font style=&quot;font-size: 35px&quot; color=&quot;#050505&quot;&gt;5&lt;/font&gt;&lt;/b&gt;" style="text;html=1;align=center;verticalAlign=middle;resizable=0;points=[];autosize=1;" vertex="1" parent="1">
          <mxGeometry x="17.5" y="11799" width="29" height="25" as="geometry" />
        </mxCell>
        <mxCell id="ZYo6UWv2TKNKh4nMed5W-98" value="3" style="rounded=0;whiteSpace=wrap;html=1;sketch=0;fillColor=#fad9d5;strokeColor=#ae4132;fontColor=#000000;fontSize=20;fontStyle=1" vertex="1" parent="1">
          <mxGeometry x="123" y="11744" width="86" height="60" as="geometry" />
        </mxCell>
        <mxCell id="ZYo6UWv2TKNKh4nMed5W-99" style="edgeStyle=orthogonalEdgeStyle;rounded=0;orthogonalLoop=1;jettySize=auto;html=1;entryX=0.5;entryY=1;entryDx=0;entryDy=0;fontColor=#050505;strokeColor=#432D57;fillColor=#76608a;" edge="1" parent="1" source="ZYo6UWv2TKNKh4nMed5W-100" target="ZYo6UWv2TKNKh4nMed5W-98">
          <mxGeometry relative="1" as="geometry" />
        </mxCell>
        <mxCell id="ZYo6UWv2TKNKh4nMed5W-100" value="slow" style="rounded=0;whiteSpace=wrap;html=1;sketch=0;strokeColor=#432D57;fontColor=#ffffff;fontSize=20;fontStyle=1;fillColor=#76608a;" vertex="1" parent="1">
          <mxGeometry x="135.25" y="11900" width="61.5" height="60" as="geometry" />
        </mxCell>
        <mxCell id="ZYo6UWv2TKNKh4nMed5W-101" value="&lt;div style=&quot;font-size: 30px&quot;&gt;&lt;/div&gt;&lt;font color=&quot;#050505&quot;&gt;&lt;span style=&quot;font-size: 30px ; font-weight: 400&quot;&gt;return slowPointer;&lt;/span&gt;&lt;/font&gt;" style="text;html=1;align=left;verticalAlign=middle;resizable=0;points=[];autosize=1;fontStyle=1" vertex="1" parent="1">
          <mxGeometry x="233" y="11780" width="257" height="24" as="geometry" />
        </mxCell>
      </root>
    </mxGraphModel>
  </diagram>
</mxfile>
